<svg xmlns="http://www.w3.org/2000/svg" version="1.1" xmlns:xlink="http://www.w3.org/1999/xlink" xmlns:svgjs="http://svgjs.dev/svgjs" viewBox="0 0 800 800" opacity="0.4" width="800" height="800" overflow="visible"><g stroke-width="4.25" stroke="#12629b" fill="none"><circle r="5.2368421052631575" cx="0" cy="0" fill="#12629b" stroke="none"></circle><circle r="5.2368421052631575" cx="61.53846153846154" cy="0" fill="#12629b" stroke="none"></circle><circle r="5.2368421052631575" cx="123.07692307692308" cy="0" fill="#12629b" stroke="none"></circle><circle r="5.2368421052631575" cx="184.6153846153846" cy="0" fill="#12629b" stroke="none"></circle><circle r="5.2368421052631575" cx="246.15384615384616" cy="0" fill="#12629b" stroke="none"></circle><circle r="5.2368421052631575" cx="307.6923076923077" cy="0" fill="#12629b" stroke="none"></circle><circle r="5.2368421052631575" cx="369.2307692307692" cy="0" fill="#12629b" stroke="none"></circle><circle r="5.2368421052631575" cx="430.7692307692308" cy="0" fill="#12629b" stroke="none"></circle><circle r="5.2368421052631575" cx="492.3076923076923" cy="0" fill="#12629b" stroke="none"></circle><circle r="5.2368421052631575" cx="553.8461538461538" cy="0" fill="#12629b" stroke="none"></circle><circle r="5.2368421052631575" cx="615.3846153846154" cy="0" fill="#12629b" stroke="none"></circle><circle r="5.2368421052631575" cx="676.9230769230769" cy="0" fill="#12629b" stroke="none"></circle><circle r="5.2368421052631575" cx="738.4615384615385" cy="0" fill="#12629b" stroke="none"></circle><circle r="5.2368421052631575" cx="800" cy="0" fill="#12629b" stroke="none"></circle><circle r="5.2368421052631575" cx="0" cy="53.333333333333336" fill="#12629b" stroke="none"></circle><circle r="5.2368421052631575" cx="61.53846153846154" cy="53.333333333333336" fill="#12629b" stroke="none"></circle><circle r="5.2368421052631575" cx="123.07692307692308" cy="53.333333333333336" fill="#12629b" stroke="none"></circle><circle r="5.2368421052631575" cx="184.6153846153846" cy="53.333333333333336" fill="#12629b" stroke="none"></circle><circle r="5.2368421052631575" cx="246.15384615384616" cy="53.333333333333336" fill="#12629b" stroke="none"></circle><circle r="5.2368421052631575" cx="307.6923076923077" cy="53.333333333333336" fill="#12629b" stroke="none"></circle><circle r="5.2368421052631575" cx="369.2307692307692" cy="53.333333333333336" fill="#12629b" stroke="none"></circle><circle r="5.2368421052631575" cx="430.7692307692308" cy="53.333333333333336" fill="#12629b" stroke="none"></circle><circle r="5.2368421052631575" cx="492.3076923076923" cy="53.333333333333336" fill="#12629b" stroke="none"></circle><circle r="5.2368421052631575" cx="553.8461538461538" cy="53.333333333333336" fill="#12629b" stroke="none"></circle><circle r="5.2368421052631575" cx="615.3846153846154" cy="53.333333333333336" fill="#12629b" stroke="none"></circle><circle r="5.2368421052631575" cx="676.9230769230769" cy="53.333333333333336" fill="#12629b" stroke="none"></circle><circle r="5.2368421052631575" cx="738.4615384615385" cy="53.333333333333336" fill="#12629b" stroke="none"></circle><circle r="5.2368421052631575" cx="800" cy="53.333333333333336" fill="#12629b" stroke="none"></circle><circle r="5.2368421052631575" cx="0" cy="106.66666666666667" fill="#12629b" stroke="none"></circle><circle r="5.2368421052631575" cx="61.53846153846154" cy="106.66666666666667" fill="#12629b" stroke="none"></circle><circle r="5.2368421052631575" cx="123.07692307692308" cy="106.66666666666667" fill="#12629b" stroke="none"></circle><circle r="5.2368421052631575" cx="184.6153846153846" cy="106.66666666666667" fill="#12629b" stroke="none"></circle><circle r="5.2368421052631575" cx="246.15384615384616" cy="106.66666666666667" fill="#12629b" stroke="none"></circle><circle r="5.2368421052631575" cx="307.6923076923077" cy="106.66666666666667" fill="#12629b" stroke="none"></circle><circle r="5.2368421052631575" cx="369.2307692307692" cy="106.66666666666667" fill="#12629b" stroke="none"></circle><circle r="5.2368421052631575" cx="430.7692307692308" cy="106.66666666666667" fill="#12629b" stroke="none"></circle><circle r="5.2368421052631575" cx="492.3076923076923" cy="106.66666666666667" fill="#12629b" stroke="none"></circle><circle r="5.2368421052631575" cx="553.8461538461538" cy="106.66666666666667" fill="#12629b" stroke="none"></circle><circle r="5.2368421052631575" cx="615.3846153846154" cy="106.66666666666667" fill="#12629b" stroke="none"></circle><circle r="5.2368421052631575" cx="676.9230769230769" cy="106.66666666666667" fill="#12629b" stroke="none"></circle><circle r="5.2368421052631575" cx="738.4615384615385" cy="106.66666666666667" fill="#12629b" stroke="none"></circle><circle r="5.2368421052631575" cx="800" cy="106.66666666666667" fill="#12629b" stroke="none"></circle><circle r="5.2368421052631575" cx="0" cy="160" fill="#12629b" stroke="none"></circle><circle r="5.2368421052631575" cx="61.53846153846154" cy="160" fill="#12629b" stroke="none"></circle><circle r="5.2368421052631575" cx="123.07692307692308" cy="160" fill="#12629b" stroke="none"></circle><circle r="5.2368421052631575" cx="184.6153846153846" cy="160" fill="#12629b" stroke="none"></circle><circle r="5.2368421052631575" cx="246.15384615384616" cy="160" fill="#12629b" stroke="none"></circle><circle r="5.2368421052631575" cx="307.6923076923077" cy="160" fill="#12629b" stroke="none"></circle><circle r="5.2368421052631575" cx="369.2307692307692" cy="160" fill="#12629b" stroke="none"></circle><circle r="5.2368421052631575" cx="430.7692307692308" cy="160" fill="#12629b" stroke="none"></circle><circle r="5.2368421052631575" cx="492.3076923076923" cy="160" fill="#12629b" stroke="none"></circle><circle r="5.2368421052631575" cx="553.8461538461538" cy="160" fill="#12629b" stroke="none"></circle><circle r="5.2368421052631575" cx="615.3846153846154" cy="160" fill="#12629b" stroke="none"></circle><circle r="5.2368421052631575" cx="676.9230769230769" cy="160" fill="#12629b" stroke="none"></circle><circle r="5.2368421052631575" cx="738.4615384615385" cy="160" fill="#12629b" stroke="none"></circle><circle r="5.2368421052631575" cx="800" cy="160" fill="#12629b" stroke="none"></circle><circle r="5.2368421052631575" cx="0" cy="213.33333333333334" fill="#12629b" stroke="none"></circle><circle r="5.2368421052631575" cx="61.53846153846154" cy="213.33333333333334" fill="#12629b" stroke="none"></circle><circle r="5.2368421052631575" cx="123.07692307692308" cy="213.33333333333334" fill="#12629b" stroke="none"></circle><circle r="5.2368421052631575" cx="184.6153846153846" cy="213.33333333333334" fill="#12629b" stroke="none"></circle><circle r="5.2368421052631575" cx="246.15384615384616" cy="213.33333333333334" fill="#12629b" stroke="none"></circle><circle r="5.2368421052631575" cx="307.6923076923077" cy="213.33333333333334" fill="#12629b" stroke="none"></circle><circle r="5.2368421052631575" cx="369.2307692307692" cy="213.33333333333334" fill="#12629b" stroke="none"></circle><circle r="5.2368421052631575" cx="430.7692307692308" cy="213.33333333333334" fill="#12629b" stroke="none"></circle><circle r="5.2368421052631575" cx="492.3076923076923" cy="213.33333333333334" fill="#12629b" stroke="none"></circle><circle r="5.2368421052631575" cx="553.8461538461538" cy="213.33333333333334" fill="#12629b" stroke="none"></circle><circle r="5.2368421052631575" cx="615.3846153846154" cy="213.33333333333334" fill="#12629b" stroke="none"></circle><circle r="5.2368421052631575" cx="676.9230769230769" cy="213.33333333333334" fill="#12629b" stroke="none"></circle><circle r="5.2368421052631575" cx="738.4615384615385" cy="213.33333333333334" fill="#12629b" stroke="none"></circle><circle r="5.2368421052631575" cx="800" cy="213.33333333333334" fill="#12629b" stroke="none"></circle><circle r="5.2368421052631575" cx="0" cy="266.6666666666667" fill="#12629b" stroke="none"></circle><circle r="5.2368421052631575" cx="61.53846153846154" cy="266.6666666666667" fill="#12629b" stroke="none"></circle><circle r="5.2368421052631575" cx="123.07692307692308" cy="266.6666666666667" fill="#12629b" stroke="none"></circle><circle r="5.2368421052631575" cx="184.6153846153846" cy="266.6666666666667" fill="#12629b" stroke="none"></circle><circle r="5.2368421052631575" cx="246.15384615384616" cy="266.6666666666667" fill="#12629b" stroke="none"></circle><circle r="5.2368421052631575" cx="307.6923076923077" cy="266.6666666666667" fill="#12629b" stroke="none"></circle><circle r="5.2368421052631575" cx="369.2307692307692" cy="266.6666666666667" fill="#12629b" stroke="none"></circle><circle r="5.2368421052631575" cx="430.7692307692308" cy="266.6666666666667" fill="#12629b" stroke="none"></circle><circle r="5.2368421052631575" cx="492.3076923076923" cy="266.6666666666667" fill="#12629b" stroke="none"></circle><circle r="5.2368421052631575" cx="553.8461538461538" cy="266.6666666666667" fill="#12629b" stroke="none"></circle><circle r="5.2368421052631575" cx="615.3846153846154" cy="266.6666666666667" fill="#12629b" stroke="none"></circle><circle r="5.2368421052631575" cx="676.9230769230769" cy="266.6666666666667" fill="#12629b" stroke="none"></circle><circle r="5.2368421052631575" cx="738.4615384615385" cy="266.6666666666667" fill="#12629b" stroke="none"></circle><circle r="5.2368421052631575" cx="800" cy="266.6666666666667" fill="#12629b" stroke="none"></circle><circle r="5.2368421052631575" cx="0" cy="320" fill="#12629b" stroke="none"></circle><circle r="5.2368421052631575" cx="61.53846153846154" cy="320" fill="#12629b" stroke="none"></circle><circle r="5.2368421052631575" cx="123.07692307692308" cy="320" fill="#12629b" stroke="none"></circle><circle r="5.2368421052631575" cx="184.6153846153846" cy="320" fill="#12629b" stroke="none"></circle><circle r="5.2368421052631575" cx="246.15384615384616" cy="320" fill="#12629b" stroke="none"></circle><circle r="5.2368421052631575" cx="307.6923076923077" cy="320" fill="#12629b" stroke="none"></circle><circle r="5.2368421052631575" cx="369.2307692307692" cy="320" fill="#12629b" stroke="none"></circle><circle r="5.2368421052631575" cx="430.7692307692308" cy="320" fill="#12629b" stroke="none"></circle><circle r="5.2368421052631575" cx="492.3076923076923" cy="320" fill="#12629b" stroke="none"></circle><circle r="5.2368421052631575" cx="553.8461538461538" cy="320" fill="#12629b" stroke="none"></circle><circle r="5.2368421052631575" cx="615.3846153846154" cy="320" fill="#12629b" stroke="none"></circle><circle r="5.2368421052631575" cx="676.9230769230769" cy="320" fill="#12629b" stroke="none"></circle><circle r="5.2368421052631575" cx="738.4615384615385" cy="320" fill="#12629b" stroke="none"></circle><circle r="5.2368421052631575" cx="800" cy="320" fill="#12629b" stroke="none"></circle><circle r="5.2368421052631575" cx="0" cy="373.3333333333333" fill="#12629b" stroke="none"></circle><circle r="5.2368421052631575" cx="61.53846153846154" cy="373.3333333333333" fill="#12629b" stroke="none"></circle><circle r="5.2368421052631575" cx="123.07692307692308" cy="373.3333333333333" fill="#12629b" stroke="none"></circle><circle r="5.2368421052631575" cx="184.6153846153846" cy="373.3333333333333" fill="#12629b" stroke="none"></circle><circle r="5.2368421052631575" cx="246.15384615384616" cy="373.3333333333333" fill="#12629b" stroke="none"></circle><circle r="5.2368421052631575" cx="307.6923076923077" cy="373.3333333333333" fill="#12629b" stroke="none"></circle><circle r="5.2368421052631575" cx="369.2307692307692" cy="373.3333333333333" fill="#12629b" stroke="none"></circle><circle r="5.2368421052631575" cx="430.7692307692308" cy="373.3333333333333" fill="#12629b" stroke="none"></circle><circle r="5.2368421052631575" cx="492.3076923076923" cy="373.3333333333333" fill="#12629b" stroke="none"></circle><circle r="5.2368421052631575" cx="553.8461538461538" cy="373.3333333333333" fill="#12629b" stroke="none"></circle><circle r="5.2368421052631575" cx="615.3846153846154" cy="373.3333333333333" fill="#12629b" stroke="none"></circle><circle r="5.2368421052631575" cx="676.9230769230769" cy="373.3333333333333" fill="#12629b" stroke="none"></circle><circle r="5.2368421052631575" cx="738.4615384615385" cy="373.3333333333333" fill="#12629b" stroke="none"></circle><circle r="5.2368421052631575" cx="800" cy="373.3333333333333" fill="#12629b" stroke="none"></circle><circle r="5.2368421052631575" cx="0" cy="426.66666666666663" fill="#12629b" stroke="none"></circle><circle r="5.2368421052631575" cx="61.53846153846154" cy="426.66666666666663" fill="#12629b" stroke="none"></circle><circle r="5.2368421052631575" cx="123.07692307692308" cy="426.66666666666663" fill="#12629b" stroke="none"></circle><circle r="5.2368421052631575" cx="184.6153846153846" cy="426.66666666666663" fill="#12629b" stroke="none"></circle><circle r="5.2368421052631575" cx="246.15384615384616" cy="426.66666666666663" fill="#12629b" stroke="none"></circle><circle r="5.2368421052631575" cx="307.6923076923077" cy="426.66666666666663" fill="#12629b" stroke="none"></circle><circle r="5.2368421052631575" cx="369.2307692307692" cy="426.66666666666663" fill="#12629b" stroke="none"></circle><circle r="5.2368421052631575" cx="430.7692307692308" cy="426.66666666666663" fill="#12629b" stroke="none"></circle><circle r="5.2368421052631575" cx="492.3076923076923" cy="426.66666666666663" fill="#12629b" stroke="none"></circle><circle r="5.2368421052631575" cx="553.8461538461538" cy="426.66666666666663" fill="#12629b" stroke="none"></circle><circle r="5.2368421052631575" cx="615.3846153846154" cy="426.66666666666663" fill="#12629b" stroke="none"></circle><circle r="5.2368421052631575" cx="676.9230769230769" cy="426.66666666666663" fill="#12629b" stroke="none"></circle><circle r="5.2368421052631575" cx="738.4615384615385" cy="426.66666666666663" fill="#12629b" stroke="none"></circle><circle r="5.2368421052631575" cx="800" cy="426.66666666666663" fill="#12629b" stroke="none"></circle><circle r="5.2368421052631575" cx="0" cy="479.99999999999994" fill="#12629b" stroke="none"></circle><circle r="5.2368421052631575" cx="61.53846153846154" cy="479.99999999999994" fill="#12629b" stroke="none"></circle><circle r="5.2368421052631575" cx="123.07692307692308" cy="479.99999999999994" fill="#12629b" stroke="none"></circle><circle r="5.2368421052631575" cx="184.6153846153846" cy="479.99999999999994" fill="#12629b" stroke="none"></circle><circle r="5.2368421052631575" cx="246.15384615384616" cy="479.99999999999994" fill="#12629b" stroke="none"></circle><circle r="5.2368421052631575" cx="307.6923076923077" cy="479.99999999999994" fill="#12629b" stroke="none"></circle><circle r="5.2368421052631575" cx="369.2307692307692" cy="479.99999999999994" fill="#12629b" stroke="none"></circle><circle r="5.2368421052631575" cx="430.7692307692308" cy="479.99999999999994" fill="#12629b" stroke="none"></circle><circle r="5.2368421052631575" cx="492.3076923076923" cy="479.99999999999994" fill="#12629b" stroke="none"></circle><circle r="5.2368421052631575" cx="553.8461538461538" cy="479.99999999999994" fill="#12629b" stroke="none"></circle><circle r="5.2368421052631575" cx="615.3846153846154" cy="479.99999999999994" fill="#12629b" stroke="none"></circle><circle r="5.2368421052631575" cx="676.9230769230769" cy="479.99999999999994" fill="#12629b" stroke="none"></circle><circle r="5.2368421052631575" cx="738.4615384615385" cy="479.99999999999994" fill="#12629b" stroke="none"></circle><circle r="5.2368421052631575" cx="800" cy="479.99999999999994" fill="#12629b" stroke="none"></circle><circle r="5.2368421052631575" cx="0" cy="533.3333333333333" fill="#12629b" stroke="none"></circle><circle r="5.2368421052631575" cx="61.53846153846154" cy="533.3333333333333" fill="#12629b" stroke="none"></circle><circle r="5.2368421052631575" cx="123.07692307692308" cy="533.3333333333333" fill="#12629b" stroke="none"></circle><circle r="5.2368421052631575" cx="184.6153846153846" cy="533.3333333333333" fill="#12629b" stroke="none"></circle><circle r="5.2368421052631575" cx="246.15384615384616" cy="533.3333333333333" fill="#12629b" stroke="none"></circle><circle r="5.2368421052631575" cx="307.6923076923077" cy="533.3333333333333" fill="#12629b" stroke="none"></circle><circle r="5.2368421052631575" cx="369.2307692307692" cy="533.3333333333333" fill="#12629b" stroke="none"></circle><circle r="5.2368421052631575" cx="430.7692307692308" cy="533.3333333333333" fill="#12629b" stroke="none"></circle><circle r="5.2368421052631575" cx="492.3076923076923" cy="533.3333333333333" fill="#12629b" stroke="none"></circle><circle r="5.2368421052631575" cx="553.8461538461538" cy="533.3333333333333" fill="#12629b" stroke="none"></circle><circle r="5.2368421052631575" cx="615.3846153846154" cy="533.3333333333333" fill="#12629b" stroke="none"></circle><circle r="5.2368421052631575" cx="676.9230769230769" cy="533.3333333333333" fill="#12629b" stroke="none"></circle><circle r="5.2368421052631575" cx="738.4615384615385" cy="533.3333333333333" fill="#12629b" stroke="none"></circle><circle r="5.2368421052631575" cx="800" cy="533.3333333333333" fill="#12629b" stroke="none"></circle><circle r="5.2368421052631575" cx="0" cy="586.6666666666666" fill="#12629b" stroke="none"></circle><circle r="5.2368421052631575" cx="61.53846153846154" cy="586.6666666666666" fill="#12629b" stroke="none"></circle><circle r="5.2368421052631575" cx="123.07692307692308" cy="586.6666666666666" fill="#12629b" stroke="none"></circle><circle r="5.2368421052631575" cx="184.6153846153846" cy="586.6666666666666" fill="#12629b" stroke="none"></circle><circle r="5.2368421052631575" cx="246.15384615384616" cy="586.6666666666666" fill="#12629b" stroke="none"></circle><circle r="5.2368421052631575" cx="307.6923076923077" cy="586.6666666666666" fill="#12629b" stroke="none"></circle><circle r="5.2368421052631575" cx="369.2307692307692" cy="586.6666666666666" fill="#12629b" stroke="none"></circle><circle r="5.2368421052631575" cx="430.7692307692308" cy="586.6666666666666" fill="#12629b" stroke="none"></circle><circle r="5.2368421052631575" cx="492.3076923076923" cy="586.6666666666666" fill="#12629b" stroke="none"></circle><circle r="5.2368421052631575" cx="553.8461538461538" cy="586.6666666666666" fill="#12629b" stroke="none"></circle><circle r="5.2368421052631575" cx="615.3846153846154" cy="586.6666666666666" fill="#12629b" stroke="none"></circle><circle r="5.2368421052631575" cx="676.9230769230769" cy="586.6666666666666" fill="#12629b" stroke="none"></circle><circle r="5.2368421052631575" cx="738.4615384615385" cy="586.6666666666666" fill="#12629b" stroke="none"></circle><circle r="5.2368421052631575" cx="800" cy="586.6666666666666" fill="#12629b" stroke="none"></circle><circle r="5.2368421052631575" cx="0" cy="640" fill="#12629b" stroke="none"></circle><circle r="5.2368421052631575" cx="61.53846153846154" cy="640" fill="#12629b" stroke="none"></circle><circle r="5.2368421052631575" cx="123.07692307692308" cy="640" fill="#12629b" stroke="none"></circle><circle r="5.2368421052631575" cx="184.6153846153846" cy="640" fill="#12629b" stroke="none"></circle><circle r="5.2368421052631575" cx="246.15384615384616" cy="640" fill="#12629b" stroke="none"></circle><circle r="5.2368421052631575" cx="307.6923076923077" cy="640" fill="#12629b" stroke="none"></circle><circle r="5.2368421052631575" cx="369.2307692307692" cy="640" fill="#12629b" stroke="none"></circle><circle r="5.2368421052631575" cx="430.7692307692308" cy="640" fill="#12629b" stroke="none"></circle><circle r="5.2368421052631575" cx="492.3076923076923" cy="640" fill="#12629b" stroke="none"></circle><circle r="5.2368421052631575" cx="553.8461538461538" cy="640" fill="#12629b" stroke="none"></circle><circle r="5.2368421052631575" cx="615.3846153846154" cy="640" fill="#12629b" stroke="none"></circle><circle r="5.2368421052631575" cx="676.9230769230769" cy="640" fill="#12629b" stroke="none"></circle><circle r="5.2368421052631575" cx="738.4615384615385" cy="640" fill="#12629b" stroke="none"></circle><circle r="5.2368421052631575" cx="800" cy="640" fill="#12629b" stroke="none"></circle><circle r="5.2368421052631575" cx="0" cy="693.3333333333334" fill="#12629b" stroke="none"></circle><circle r="5.2368421052631575" cx="61.53846153846154" cy="693.3333333333334" fill="#12629b" stroke="none"></circle><circle r="5.2368421052631575" cx="123.07692307692308" cy="693.3333333333334" fill="#12629b" stroke="none"></circle><circle r="5.2368421052631575" cx="184.6153846153846" cy="693.3333333333334" fill="#12629b" stroke="none"></circle><circle r="5.2368421052631575" cx="246.15384615384616" cy="693.3333333333334" fill="#12629b" stroke="none"></circle><circle r="5.2368421052631575" cx="307.6923076923077" cy="693.3333333333334" fill="#12629b" stroke="none"></circle><circle r="5.2368421052631575" cx="369.2307692307692" cy="693.3333333333334" fill="#12629b" stroke="none"></circle><circle r="5.2368421052631575" cx="430.7692307692308" cy="693.3333333333334" fill="#12629b" stroke="none"></circle><circle r="5.2368421052631575" cx="492.3076923076923" cy="693.3333333333334" fill="#12629b" stroke="none"></circle><circle r="5.2368421052631575" cx="553.8461538461538" cy="693.3333333333334" fill="#12629b" stroke="none"></circle><circle r="5.2368421052631575" cx="615.3846153846154" cy="693.3333333333334" fill="#12629b" stroke="none"></circle><circle r="5.2368421052631575" cx="676.9230769230769" cy="693.3333333333334" fill="#12629b" stroke="none"></circle><circle r="5.2368421052631575" cx="738.4615384615385" cy="693.3333333333334" fill="#12629b" stroke="none"></circle><circle r="5.2368421052631575" cx="800" cy="693.3333333333334" fill="#12629b" stroke="none"></circle><circle r="5.2368421052631575" cx="0" cy="746.6666666666667" fill="#12629b" stroke="none"></circle><circle r="5.2368421052631575" cx="61.53846153846154" cy="746.6666666666667" fill="#12629b" stroke="none"></circle><circle r="5.2368421052631575" cx="123.07692307692308" cy="746.6666666666667" fill="#12629b" stroke="none"></circle><circle r="5.2368421052631575" cx="184.6153846153846" cy="746.6666666666667" fill="#12629b" stroke="none"></circle><circle r="5.2368421052631575" cx="246.15384615384616" cy="746.6666666666667" fill="#12629b" stroke="none"></circle><circle r="5.2368421052631575" cx="307.6923076923077" cy="746.6666666666667" fill="#12629b" stroke="none"></circle><circle r="5.2368421052631575" cx="369.2307692307692" cy="746.6666666666667" fill="#12629b" stroke="none"></circle><circle r="5.2368421052631575" cx="430.7692307692308" cy="746.6666666666667" fill="#12629b" stroke="none"></circle><circle r="5.2368421052631575" cx="492.3076923076923" cy="746.6666666666667" fill="#12629b" stroke="none"></circle><circle r="5.2368421052631575" cx="553.8461538461538" cy="746.6666666666667" fill="#12629b" stroke="none"></circle><circle r="5.2368421052631575" cx="615.3846153846154" cy="746.6666666666667" fill="#12629b" stroke="none"></circle><circle r="5.2368421052631575" cx="676.9230769230769" cy="746.6666666666667" fill="#12629b" stroke="none"></circle><circle r="5.2368421052631575" cx="738.4615384615385" cy="746.6666666666667" fill="#12629b" stroke="none"></circle><circle r="5.2368421052631575" cx="800" cy="746.6666666666667" fill="#12629b" stroke="none"></circle><circle r="5.2368421052631575" cx="0" cy="800.0000000000001" fill="#12629b" stroke="none"></circle><circle r="5.2368421052631575" cx="61.53846153846154" cy="800.0000000000001" fill="#12629b" stroke="none"></circle><circle r="5.2368421052631575" cx="123.07692307692308" cy="800.0000000000001" fill="#12629b" stroke="none"></circle><circle r="5.2368421052631575" cx="184.6153846153846" cy="800.0000000000001" fill="#12629b" stroke="none"></circle><circle r="5.2368421052631575" cx="246.15384615384616" cy="800.0000000000001" fill="#12629b" stroke="none"></circle><circle r="5.2368421052631575" cx="307.6923076923077" cy="800.0000000000001" fill="#12629b" stroke="none"></circle><circle r="5.2368421052631575" cx="369.2307692307692" cy="800.0000000000001" fill="#12629b" stroke="none"></circle><circle r="5.2368421052631575" cx="430.7692307692308" cy="800.0000000000001" fill="#12629b" stroke="none"></circle><circle r="5.2368421052631575" cx="492.3076923076923" cy="800.0000000000001" fill="#12629b" stroke="none"></circle><circle r="5.2368421052631575" cx="553.8461538461538" cy="800.0000000000001" fill="#12629b" stroke="none"></circle><circle r="5.2368421052631575" cx="615.3846153846154" cy="800.0000000000001" fill="#12629b" stroke="none"></circle><circle r="5.2368421052631575" cx="676.9230769230769" cy="800.0000000000001" fill="#12629b" stroke="none"></circle><circle r="5.2368421052631575" cx="738.4615384615385" cy="800.0000000000001" fill="#12629b" stroke="none"></circle><circle r="5.2368421052631575" cx="800" cy="800.0000000000001" fill="#12629b" stroke="none"></circle></g></svg>
